<svg xmlns="http://www.w3.org/2000/svg" viewBox="0 0 64 64">
  <defs>
    <radialGradient id="elixir">
      <stop offset="0%" stop-color="#ffd166" stop-opacity="0.9"/>
      <stop offset="70%" stop-color="#ff6b9d" stop-opacity="0.8"/>
      <stop offset="100%" stop-color="#c44569" stop-opacity="0.7"/>
    </radialGradient>
    <linearGradient id="bottle" x1="0" x2="0" y1="0" y2="1">
      <stop offset="0%" stop-color="#2d3e50" stop-opacity="0.6"/>
      <stop offset="100%" stop-color="#1a252f" stop-opacity="0.8"/>
    </linearGradient>
    <filter id="glow">
      <feGaussianBlur stdDeviation="2" result="coloredBlur"/>
      <feMerge>
        <feMergeNode in="coloredBlur"/>
        <feMergeNode in="SourceGraphic"/>
      </feMerge>
    </filter>
  </defs>
  
  <!-- Mystical aura -->
  <circle cx="32" cy="40" r="22" fill="#ffd166" opacity="0.1"/>
  
  <!-- Flask body (classic alchemist round bottom flask) -->
  <ellipse cx="32" cy="48" rx="16" ry="14" fill="url(#bottle)" stroke="#3d5a6b" stroke-width="1.5"/>
  
  <!-- Liquid -->
  <ellipse cx="32" cy="48" rx="14.5" ry="12.5" fill="url(#elixir)" filter="url(#glow)"/>
  
  <!-- Bubbles rising -->
  <circle cx="28" cy="50" r="1.5" fill="#fff" opacity="0.6">
    <animate attributeName="cy" values="50;38;50" dur="3s" repeatCount="indefinite"/>
    <animate attributeName="opacity" values="0.6;0;0.6" dur="3s" repeatCount="indefinite"/>
  </circle>
  <circle cx="36" cy="52" r="1.2" fill="#fff" opacity="0.5">
    <animate attributeName="cy" values="52;40;52" dur="4s" repeatCount="indefinite"/>
    <animate attributeName="opacity" values="0.5;0;0.5" dur="4s" repeatCount="indefinite"/>
  </circle>
  <circle cx="32" cy="54" r="1" fill="#fff" opacity="0.4">
    <animate attributeName="cy" values="54;42;54" dur="3.5s" repeatCount="indefinite"/>
    <animate attributeName="opacity" values="0.4;0;0.4" dur="3.5s" repeatCount="indefinite"/>
  </circle>
  
  <!-- Flask neck -->
  <path d="M28 34 L28 30 Q28 28 30 28 L34 28 Q36 28 36 30 L36 34" 
        fill="url(#bottle)" stroke="#3d5a6b" stroke-width="1.5"/>
  
  <!-- Cork/Stopper with wax seal -->
  <ellipse cx="32" cy="27" rx="5" ry="2.5" fill="#8b4513"/>
  <rect x="27" y="22" width="10" height="5" rx="1.5" fill="#a0522d"/>
  <circle cx="32" cy="24.5" r="2" fill="#c44569" opacity="0.8"/>
  
  <!-- Shine on glass -->
  <ellipse cx="26" cy="44" rx="3" ry="6" fill="#fff" opacity="0.2"/>
  
  <!-- Magical sparkles -->
  <path d="M20 28 L21 29 L20 30 L19 29 Z" fill="#ffd166" opacity="0.7">
    <animate attributeName="opacity" values="0.7;0.3;0.7" dur="2s" repeatCount="indefinite"/>
  </path>
  <path d="M44 32 L45 33 L44 34 L43 33 Z" fill="#ff6b9d" opacity="0.6">
    <animate attributeName="opacity" values="0.6;0.2;0.6" dur="2.5s" repeatCount="indefinite"/>
  </path>
  <path d="M38 20 L39 21 L38 22 L37 21 Z" fill="#7cc7ff" opacity="0.8">
    <animate attributeName="opacity" values="0.8;0.4;0.8" dur="1.8s" repeatCount="indefinite"/>
  </path>
</svg>
